<svg width="30" height="30" viewBox="0 0 30 30" fill="none" xmlns="http://www.w3.org/2000/svg">
<circle cx="15" cy="15" r="15" fill="white"/>
<g clip-path="url(#clip0_405_2149)">
<path d="M21.9314 8.63376C20.6345 8.03859 19.2661 7.61381 17.8601 7.37001C17.8474 7.36786 17.8343 7.36972 17.8227 7.37531C17.811 7.38091 17.8014 7.38997 17.7951 7.40126C17.6189 7.71376 17.4239 8.12251 17.2876 8.44251C15.7721 8.21252 14.2306 8.21252 12.7151 8.44251C12.5631 8.08603 12.3912 7.7384 12.2001 7.40126C12.1937 7.3901 12.1841 7.38114 12.1725 7.37556C12.1609 7.36998 12.1479 7.36805 12.1351 7.37001C10.7289 7.61251 9.36013 8.03751 8.06388 8.63376C8.05279 8.63799 8.04351 8.64594 8.03763 8.65626C5.44513 12.53 4.73388 16.3088 5.08263 20.04C5.08388 20.0575 5.09513 20.075 5.10888 20.0863C6.61854 21.2045 8.30712 22.0583 10.1026 22.6113C10.1153 22.6153 10.1289 22.6151 10.1415 22.6108C10.1541 22.6066 10.165 22.5984 10.1726 22.5875C10.5576 22.0625 10.9001 21.5088 11.1951 20.9263C11.2013 20.9143 11.2034 20.9006 11.2011 20.8873C11.1989 20.874 11.1924 20.8618 11.1826 20.8525C11.1762 20.8464 11.1685 20.8417 11.1601 20.8388C10.6216 20.6318 10.1 20.3831 9.60013 20.095C9.58617 20.0871 9.57579 20.0741 9.57114 20.0588C9.56648 20.0434 9.56791 20.0268 9.57513 20.0125C9.57939 20.0032 9.58582 19.9951 9.59388 19.9888C9.69888 19.91 9.80388 19.8275 9.90388 19.745C9.91272 19.7379 9.92332 19.7333 9.93455 19.7318C9.94578 19.7303 9.95721 19.7318 9.96763 19.7363C13.2414 21.2313 16.7851 21.2313 20.0189 19.7363C20.0297 19.7316 20.0416 19.7299 20.0532 19.7315C20.0649 19.733 20.0759 19.7377 20.0851 19.745C20.1851 19.8275 20.2901 19.91 20.3951 19.9888C20.4036 19.995 20.4105 20.0032 20.415 20.0127C20.4196 20.0222 20.4217 20.0327 20.4212 20.0432C20.4207 20.0538 20.4176 20.064 20.4122 20.073C20.4068 20.0821 20.3992 20.0896 20.3901 20.095C19.8914 20.3858 19.3692 20.6341 18.8289 20.8375C18.8203 20.8406 18.8124 20.8456 18.806 20.8521C18.7995 20.8586 18.7945 20.8664 18.7914 20.875C18.7885 20.8834 18.7873 20.8922 18.788 20.901C18.7886 20.9098 18.7911 20.9184 18.7951 20.9263C19.0951 21.5075 19.4389 22.0625 19.8164 22.5875C19.824 22.5984 19.8349 22.6066 19.8475 22.6108C19.8601 22.6151 19.8737 22.6153 19.8864 22.6113C21.6849 22.06 23.3762 21.2061 24.8876 20.0863C24.8952 20.081 24.9015 20.0741 24.906 20.0661C24.9106 20.0581 24.9133 20.0492 24.9139 20.04C25.3314 15.7263 24.2151 11.9788 21.9564 8.65751C21.9541 8.65202 21.9507 8.64708 21.9464 8.64298C21.9421 8.63889 21.937 8.63575 21.9314 8.63376ZM11.6839 17.7675C10.6976 17.7675 9.88638 16.8625 9.88638 15.7525C9.88638 14.6413 10.6826 13.7363 11.6839 13.7363C12.6926 13.7363 13.4964 14.6488 13.4814 15.7525C13.4814 16.8625 12.6851 17.7675 11.6839 17.7675ZM18.3289 17.7675C17.3439 17.7675 16.5314 16.8625 16.5314 15.7525C16.5314 14.6413 17.3276 13.7363 18.3289 13.7363C19.3376 13.7363 20.1426 14.6488 20.1264 15.7525C20.1264 16.8625 19.3376 17.7675 18.3289 17.7675Z" fill="#191C22"/>
</g>
<defs>
<clipPath id="clip0_405_2149">
<rect width="20" height="20" fill="white" transform="translate(5.00014 5)"/>
</clipPath>
</defs>
</svg>
