<svg width="30" height="30" viewBox="0 0 30 30" fill="none" xmlns="http://www.w3.org/2000/svg">
<circle cx="15" cy="15" r="15" fill="white"/>
<g clip-path="url(#clip0_405_2145)">
<path d="M24.7026 9.11415C24.0068 9.42248 23.2593 9.63082 22.4735 9.72498C23.2843 9.23981 23.8909 8.4762 24.1801 7.57665C23.4183 8.02914 22.5846 8.34765 21.7151 8.51832C21.1305 7.89404 20.356 7.48025 19.5121 7.34121C18.6681 7.20217 17.8019 7.34564 17.0478 7.74936C16.2938 8.15308 15.6941 8.79445 15.3419 9.5739C14.9897 10.3534 14.9048 11.2273 15.1001 12.06C13.5565 11.9825 12.0465 11.5813 10.668 10.8824C9.28949 10.1835 8.07334 9.20262 7.09847 8.00332C6.76514 8.57832 6.57347 9.24498 6.57347 9.95498C6.5731 10.5941 6.7305 11.2235 7.0317 11.7873C7.33291 12.351 7.76861 12.8317 8.30014 13.1866C7.6837 13.167 7.08087 13.0005 6.5418 12.7008V12.7508C6.54174 13.6473 6.85183 14.5161 7.41946 15.21C7.98708 15.9038 8.77728 16.3799 9.65597 16.5575C9.08412 16.7122 8.48459 16.735 7.90264 16.6242C8.15055 17.3955 8.63347 18.07 9.28378 18.5533C9.93409 19.0365 10.7192 19.3043 11.5293 19.3192C10.1542 20.3987 8.45588 20.9842 6.70764 20.9816C6.39796 20.9817 6.08854 20.9636 5.78097 20.9275C7.55553 22.0685 9.62125 22.674 11.731 22.6716C18.8726 22.6716 22.7768 16.7566 22.7768 11.6266C22.7768 11.46 22.7726 11.2916 22.7651 11.125C23.5245 10.5758 24.1801 9.89573 24.701 9.11665L24.7026 9.11415Z" fill="#191C22"/>
</g>
<defs>
<clipPath id="clip0_405_2145">
<rect width="20" height="20" fill="white" transform="translate(5.00014 5)"/>
</clipPath>
</defs>
</svg>
